# xmcd
#
# Track frame offsets: 
#        150
#        1912
#        22347
#        42229
#        60415
#        78255
#        102637
#        136137
#        161572
#        180582
#        199212
#        223105
#        239175
#
# Disc length: 3546 seconds
#
# Revision: 0
# Processed by: cddbd v1.5.2PL0 Copyright (c) Steve Scherf et al.
# Submitted via: ExactAudioCopy v0.99pb5
#
DISCID=b60dd80d
DTITLE=Niko Schlenker - Greater Than Anything
DYEAR=2011
DGENRE=Gospel
TTITLE0=Introduction - James Smith
TTITLE1=Greater Than Anything - NewLifeGospel Choir
TTITLE2=I've Got Joy - NewLifeGospel Choir
TTITLE3=God Gives Back - NewLifeGospel Choir
TTITLE4=Walk Before Me - NewLifeGospel Choir
TTITLE5=Hallelujah - NewLifeGospel Choir
TTITLE6=Wait - NewLifeGospel Choir
TTITLE7=Jeremiah - NewLifeGospel Choir
TTITLE8=Ev'ryday - NewLifeGospel Choir
TTITLE9=Praise Him - NewLifeGospel Choir
TTITLE10=Coming To You - The Gospel Family of Christ
TTITLE11=I'm A Witness - Buki Domingos And The Angels
TTITLE12=Be Encouraged - James Smith and Natalia Antczak
EXTD=
EXTT0=
EXTT1=
EXTT2=
EXTT3=
EXTT4=
EXTT5=
EXTT6=
EXTT7=
EXTT8=
EXTT9=
EXTT10=
EXTT11=
EXTT12=
PLAYORDER=
